<?xml version="1.0" standalone="no"?>
<!DOCTYPE svg PUBLIC "-//W3C//DTD SVG 20010904//EN"
 "http://www.w3.org/TR/2001/REC-SVG-20010904/DTD/svg10.dtd">
<svg version="1.0" xmlns="http://www.w3.org/2000/svg"
 width="736.000000pt" height="832.000000pt" viewBox="0 0 736.000000 832.000000"
 preserveAspectRatio="xMidYMid meet">
<metadata>
Created by potrace 1.16, written by Peter Selinger 2001-2019
</metadata>
<g transform="translate(0.000000,832.000000) scale(0.100000,-0.100000)"
fill="#0ea5e9" stroke="none">
<path d="M3145 8210 c-609 -42 -1229 -270 -1765 -649 -231 -163 -552 -469
-697 -662 -336 -451 -550 -1011 -624 -1634 -21 -174 -16 -492 10 -664 104
-687 411 -1185 931 -1511 180 -113 422 -211 608 -246 129 -24 408 -14 552 20
298 70 563 198 802 387 269 212 509 526 641 839 31 74 31 73 135 40 51 -17
127 -35 168 -41 103 -14 205 12 327 82 l89 52 82 -9 c44 -5 135 -9 201 -8 101
1 133 5 203 28 165 54 270 138 342 276 34 67 54 91 123 148 101 85 160 148
215 229 223 329 262 771 97 1120 -44 94 -85 153 -159 232 -132 137 -256 216
-454 287 l-133 47 -66 91 c-117 161 -255 287 -388 354 -156 78 -213 92 -430
101 l-180 8 -156 80 c-197 102 -288 126 -464 125 -199 -1 -319 -42 -503 -169
l-107 -75 -121 7 c-254 13 -433 -37 -611 -171 -99 -74 -155 -146 -243 -315
-66 -126 -82 -149 -130 -187 -195 -155 -276 -240 -359 -377 -52 -86 -99 -221
-112 -323 -28 -204 47 -472 193 -695 l52 -79 0 -171 c1 -162 3 -176 29 -247
127 -345 437 -548 802 -527 246 15 469 121 651 309 97 101 147 171 194 270 61
128 25 159 -70 60 -212 -222 -488 -342 -788 -342 -164 0 -257 29 -343 107
-102 93 -155 309 -114 463 27 100 23 117 -50 199 -156 178 -225 339 -225 527
0 238 108 392 383 548 59 33 70 50 111 169 64 183 152 302 291 396 92 62 177
90 287 98 158 11 274 -27 379 -125 76 -70 124 -138 230 -326 128 -228 217
-308 392 -353 57 -14 150 -13 193 4 21 8 17 59 -6 81 -11 10 -50 29 -87 42
-108 37 -164 69 -218 124 -63 66 -91 117 -155 291 -72 196 -112 275 -170 339
l-51 55 53 39 c65 49 86 60 150 78 61 18 205 20 273 3 75 -18 187 -72 231
-111 102 -90 91 -87 264 -85 143 1 162 -1 240 -26 206 -65 389 -216 533 -439
71 -110 78 -117 119 -128 251 -67 350 -115 463 -225 132 -128 159 -195 176
-435 15 -212 10 -344 -16 -387 -11 -18 -25 -33 -31 -33 -18 0 -64 57 -108 132
-58 99 -156 219 -228 277 -71 59 -210 129 -308 157 -94 27 -296 24 -405 -5
-110 -29 -189 -70 -193 -98 -2 -13 -2 -23 0 -23 2 -1 84 -5 183 -10 201 -10
291 -29 407 -83 246 -115 365 -305 356 -567 -3 -99 -6 -112 -41 -182 -70 -142
-198 -233 -373 -265 -77 -14 -99 -15 -169 -3 -165 27 -194 26 -274 -14 -160
-81 -252 -83 -404 -9 -130 63 -201 117 -291 222 -43 50 -82 91 -86 91 -10 0
-26 -58 -45 -165 -47 -261 -154 -524 -302 -750 -83 -126 -263 -308 -384 -388
-503 -333 -1026 -341 -1494 -23 -132 89 -304 265 -398 406 -288 434 -371 1017
-228 1605 83 339 255 718 473 1044 194 288 481 573 780 771 375 250 815 409
1283 465 177 22 586 16 735 -9 145 -25 324 -71 440 -111 142 -50 422 -188 550
-273 487 -319 876 -800 1093 -1353 53 -135 128 -379 151 -494 116 -582 48
-1199 -196 -1775 -206 -486 -583 -984 -952 -1257 -644 -477 -622 -459 -870
-683 -283 -255 -544 -581 -775 -969 -72 -120 -293 -557 -311 -615 -14 -43 -8
-152 9 -169 18 -18 54 17 178 175 398 506 784 828 1311 1092 182 91 339 153
502 199 290 81 459 105 855 117 418 14 501 25 669 92 161 64 261 149 322 273
44 92 54 147 54 323 l0 163 41 51 c54 69 75 113 88 184 13 68 2 145 -30 226
-10 27 -19 58 -19 70 0 11 21 54 46 95 60 96 73 133 74 217 0 82 -24 137 -106
238 l-55 68 63 47 c166 128 212 168 263 230 92 110 116 175 96 250 -16 58 -97
136 -222 213 -229 141 -374 347 -489 700 -21 63 -47 167 -59 230 -59 312 -76
386 -127 557 -168 569 -427 1021 -813 1416 -480 491 -1018 775 -1672 882 -272
44 -499 54 -784 35z"/>
</g>
</svg>
